<svg width="201" height="26" viewBox="0 0 201 26" fill="none" xmlns="http://www.w3.org/2000/svg">
<path d="M4.63857 8.04974C4.06066 8.3387 2.71817 8.59537 2.29843 9.0398C1.7625 9.60725 3.72527 9.76849 4.50356 9.82735C10.3208 10.2673 16.2899 9.98798 22.0996 9.71485C43.3269 8.71687 64.4325 5.9898 85.5536 3.77448C93.1779 2.97479 100.811 2.20267 108.46 1.68185C110.421 1.54832 116.233 1.25784 114.355 1.83936C108.871 3.53783 102.827 4.33622 97.2543 5.55209C84.7271 8.2853 72.2175 11.1486 59.812 14.3951C53.0929 16.1535 43.6602 17.6688 37.5806 21.5731C37.1307 21.862 36.2424 22.5943 36.6805 22.9007C37.6962 23.6108 39.1104 23.4502 40.3483 23.5082C42.9632 23.6308 45.5871 23.5787 48.2013 23.4407C67.346 22.4299 86.4927 19.8313 105.49 17.4103C126.071 14.7874 146.636 11.9458 167.099 8.49977C177.987 6.66602 188.833 4.60424 199.456 1.56934" stroke="white" stroke-width="3" stroke-linecap="round"/>
</svg>
